<svg xmlns="http://www.w3.org/2000/svg" width="1600" height="620" font-family="Helvetica, Arial, sans-serif" font-size="12">
<rect width="100%" height="100%" fill="white"/>
<text x="90" y="24" font-size="18" font-weight="bold">Sprint25 outdoor 15-min run — SPOT-31593C / BMCAM_004</text>
<text x="90" y="42">run sprint25_outdoor_20260923T0240Z · SPOT-31593C · 2026-09-22 22:15Z to 2026-09-23 02:49Z · 17 bursts · cut sheet is a review artifact: time axes linear, bar heights not to scale</text>
<text x="4" y="74" font-size="11">bus ON</text>
<line x1="90" y1="70" x2="1570" y2="70" stroke="#eee"/>
<text x="4" y="104" font-size="11">bursts</text>
<line x1="90" y1="100" x2="1570" y2="100" stroke="#eee"/>
<text x="4" y="144" font-size="11">queue full</text>
<line x1="90" y1="140" x2="1570" y2="140" stroke="#eee"/>
<text x="4" y="169" font-size="11">HDR push</text>
<line x1="90" y1="165" x2="1570" y2="165" stroke="#eee"/>
<text x="4" y="194" font-size="11">LEGACY report</text>
<line x1="90" y1="190" x2="1570" y2="190" stroke="#eee"/>
<text x="4" y="219" font-size="11">Rx check</text>
<line x1="90" y1="215" x2="1570" y2="215" stroke="#eee"/>
<text x="4" y="244" font-size="11">reset</text>
<line x1="90" y1="240" x2="1570" y2="240" stroke="#eee"/>
<line x1="333.1" y1="60" x2="333.1" y2="255" stroke="#ddd"/>
<text x="333.1" y="268" font-size="10" text-anchor="middle">23Z</text>
<line x1="657.2" y1="60" x2="657.2" y2="255" stroke="#ddd"/>
<text x="657.2" y="268" font-size="10" text-anchor="middle">00Z</text>
<line x1="981.2" y1="60" x2="981.2" y2="255" stroke="#ddd"/>
<text x="981.2" y="268" font-size="10" text-anchor="middle">01Z</text>
<line x1="1305.3" y1="60" x2="1305.3" y2="255" stroke="#ddd"/>
<text x="1305.3" y="268" font-size="10" text-anchor="middle">02Z</text>
<line x1="120.9" y1="230" x2="120.9" y2="250" stroke="#000" stroke-width="2"><title>SD card insertion reset 22:20:42Z</title></line>
<line x1="141.4" y1="180" x2="141.4" y2="200" stroke="#000" stroke-width="2"><title>boot 22:24:31Z</title></line>
<line x1="144.0" y1="208" x2="144.0" y2="222" stroke="#333"/>
<line x1="144.5" y1="208" x2="144.5" y2="222" stroke="#333"/>
<line x1="171.1" y1="158" x2="171.1" y2="172" stroke="#5b8def"/>
<line x1="198.1" y1="158" x2="198.1" y2="172" stroke="#5b8def"/>
<line x1="206.2" y1="132" x2="206.2" y2="148" stroke="#e0a800"/>
<line x1="225.1" y1="158" x2="225.1" y2="172" stroke="#5b8def"/>
<rect x="198.1" y="62" width="54.0" height="14" fill="#9ec9ff"/>
<line x1="252.1" y1="158" x2="252.1" y2="172" stroke="#5b8def"/>
<line x1="279.1" y1="158" x2="279.1" y2="172" stroke="#5b8def"/>
<line x1="292.8" y1="132" x2="292.8" y2="148" stroke="#e0a800"/>
<line x1="306.1" y1="158" x2="306.1" y2="172" stroke="#5b8def"/>
<rect x="279.1" y="62" width="54.0" height="14" fill="#9ec9ff"/>
<line x1="333.1" y1="158" x2="333.1" y2="172" stroke="#5b8def"/>
<line x1="360.1" y1="158" x2="360.1" y2="172" stroke="#5b8def"/>
<line x1="387.1" y1="158" x2="387.1" y2="172" stroke="#5b8def"/>
<rect x="360.1" y="62" width="54.0" height="14" fill="#9ec9ff"/>
<line x1="414.2" y1="158" x2="414.2" y2="172" stroke="#5b8def"/>
<line x1="441.2" y1="158" x2="441.2" y2="172" stroke="#5b8def"/>
<line x1="444.9" y1="180" x2="444.9" y2="200" stroke="#ff6f00" stroke-width="2"><title>health 23:20:42Z</title></line>
<line x1="446.5" y1="132" x2="446.5" y2="148" stroke="#e0a800"/>
<line x1="446.5" y1="132" x2="446.5" y2="148" stroke="#e0a800"/>
<line x1="446.6" y1="132" x2="446.6" y2="148" stroke="#e0a800"/>
<line x1="446.7" y1="132" x2="446.7" y2="148" stroke="#e0a800"/>
<line x1="446.8" y1="132" x2="446.8" y2="148" stroke="#e0a800"/>
<line x1="446.9" y1="132" x2="446.9" y2="148" stroke="#e0a800"/>
<line x1="447.0" y1="132" x2="447.0" y2="148" stroke="#e0a800"/>
<line x1="447.1" y1="132" x2="447.1" y2="148" stroke="#e0a800"/>
<line x1="447.2" y1="132" x2="447.2" y2="148" stroke="#e0a800"/>
<line x1="447.2" y1="208" x2="447.2" y2="222" stroke="#333"/>
<line x1="447.3" y1="132" x2="447.3" y2="148" stroke="#e0a800"/>
<line x1="447.4" y1="132" x2="447.4" y2="148" stroke="#e0a800"/>
<line x1="454.4" y1="132" x2="454.4" y2="148" stroke="#e0a800"/>
<line x1="468.2" y1="180" x2="468.2" y2="200" stroke="#c0392b" stroke-width="2"><title>hourly 23:25:00Z</title></line>
<line x1="468.2" y1="158" x2="468.2" y2="172" stroke="#5b8def"/>
<line x1="470.5" y1="208" x2="470.5" y2="222" stroke="#333"/>
<rect x="441.2" y="62" width="54.0" height="14" fill="#9ec9ff"/>
<line x1="495.2" y1="158" x2="495.2" y2="172" stroke="#5b8def"/>
<line x1="522.2" y1="158" x2="522.2" y2="172" stroke="#5b8def"/>
<line x1="549.2" y1="158" x2="549.2" y2="172" stroke="#5b8def"/>
<rect x="522.2" y="62" width="54.0" height="14" fill="#9ec9ff"/>
<line x1="576.2" y1="158" x2="576.2" y2="172" stroke="#5b8def"/>
<line x1="603.2" y1="158" x2="603.2" y2="172" stroke="#5b8def"/>
<line x1="612.5" y1="132" x2="612.5" y2="148" stroke="#e0a800"/>
<line x1="630.2" y1="158" x2="630.2" y2="172" stroke="#5b8def"/>
<line x1="657.2" y1="158" x2="657.2" y2="172" stroke="#5b8def"/>
<rect x="603.2" y="62" width="54.0" height="14" fill="#9ec9ff"/>
<line x1="684.2" y1="158" x2="684.2" y2="172" stroke="#5b8def"/>
<line x1="699.3" y1="132" x2="699.3" y2="148" stroke="#e0a800"/>
<line x1="700.2" y1="132" x2="700.2" y2="148" stroke="#e0a800"/>
<line x1="711.3" y1="158" x2="711.3" y2="172" stroke="#5b8def"/>
<line x1="738.3" y1="158" x2="738.3" y2="172" stroke="#5b8def"/>
<rect x="684.3" y="62" width="54.0" height="14" fill="#9ec9ff"/>
<line x1="765.3" y1="158" x2="765.3" y2="172" stroke="#5b8def"/>
<line x1="773.3" y1="132" x2="773.3" y2="148" stroke="#e0a800"/>
<line x1="792.3" y1="180" x2="792.3" y2="200" stroke="#c0392b" stroke-width="2"><title>hourly 00:25:01Z</title></line>
<line x1="792.3" y1="158" x2="792.3" y2="172" stroke="#5b8def"/>
<line x1="794.6" y1="208" x2="794.6" y2="222" stroke="#333"/>
<rect x="765.2" y="62" width="54.0" height="14" fill="#9ec9ff"/>
<line x1="819.3" y1="158" x2="819.3" y2="172" stroke="#5b8def"/>
<line x1="846.3" y1="158" x2="846.3" y2="172" stroke="#5b8def"/>
<line x1="860.2" y1="132" x2="860.2" y2="148" stroke="#e0a800"/>
<line x1="873.3" y1="158" x2="873.3" y2="172" stroke="#5b8def"/>
<rect x="846.2" y="62" width="54.0" height="14" fill="#9ec9ff"/>
<line x1="900.3" y1="158" x2="900.3" y2="172" stroke="#5b8def"/>
<line x1="927.3" y1="158" x2="927.3" y2="172" stroke="#5b8def"/>
<line x1="946.3" y1="132" x2="946.3" y2="148" stroke="#e0a800"/>
<line x1="954.3" y1="158" x2="954.3" y2="172" stroke="#5b8def"/>
<rect x="927.3" y="62" width="54.0" height="14" fill="#9ec9ff"/>
<line x1="981.3" y1="158" x2="981.3" y2="172" stroke="#5b8def"/>
<line x1="1008.3" y1="158" x2="1008.3" y2="172" stroke="#5b8def"/>
<line x1="1027.6" y1="132" x2="1027.6" y2="148" stroke="#e0a800"/>
<line x1="1035.4" y1="158" x2="1035.4" y2="172" stroke="#5b8def"/>
<rect x="1008.3" y="62" width="54.0" height="14" fill="#9ec9ff"/>
<line x1="1062.4" y1="158" x2="1062.4" y2="172" stroke="#5b8def"/>
<line x1="1089.4" y1="158" x2="1089.4" y2="172" stroke="#5b8def"/>
<line x1="1116.4" y1="180" x2="1116.4" y2="200" stroke="#c0392b" stroke-width="2"><title>hourly 01:25:01Z</title></line>
<line x1="1116.4" y1="158" x2="1116.4" y2="172" stroke="#5b8def"/>
<line x1="1118.7" y1="208" x2="1118.7" y2="222" stroke="#333"/>
<rect x="1089.3" y="62" width="54.0" height="14" fill="#9ec9ff"/>
<line x1="1143.4" y1="158" x2="1143.4" y2="172" stroke="#5b8def"/>
<line x1="1170.4" y1="158" x2="1170.4" y2="172" stroke="#5b8def"/>
<line x1="1197.4" y1="158" x2="1197.4" y2="172" stroke="#5b8def"/>
<rect x="1170.4" y="62" width="54.0" height="14" fill="#9ec9ff"/>
<line x1="1224.4" y1="158" x2="1224.4" y2="172" stroke="#5b8def"/>
<line x1="1251.4" y1="158" x2="1251.4" y2="172" stroke="#5b8def"/>
<line x1="1270.3" y1="132" x2="1270.3" y2="148" stroke="#e0a800"/>
<line x1="1278.4" y1="158" x2="1278.4" y2="172" stroke="#5b8def"/>
<rect x="1251.4" y="62" width="54.0" height="14" fill="#9ec9ff"/>
<line x1="1305.4" y1="158" x2="1305.4" y2="172" stroke="#5b8def"/>
<line x1="1332.5" y1="158" x2="1332.5" y2="172" stroke="#5b8def"/>
<line x1="1359.5" y1="158" x2="1359.5" y2="172" stroke="#5b8def"/>
<rect x="1332.4" y="62" width="54.0" height="14" fill="#9ec9ff"/>
<line x1="1386.5" y1="158" x2="1386.5" y2="172" stroke="#5b8def"/>
<line x1="1413.5" y1="158" x2="1413.5" y2="172" stroke="#5b8def"/>
<line x1="1440.5" y1="180" x2="1440.5" y2="200" stroke="#c0392b" stroke-width="2"><title>hourly 02:25:01Z</title></line>
<line x1="1440.5" y1="158" x2="1440.5" y2="172" stroke="#5b8def"/>
<line x1="1443.3" y1="208" x2="1443.3" y2="222" stroke="#333"/>
<rect x="1413.5" y="62" width="54.0" height="14" fill="#9ec9ff"/>
<line x1="1467.5" y1="158" x2="1467.5" y2="172" stroke="#5b8def"/>
<line x1="1494.5" y1="158" x2="1494.5" y2="172" stroke="#5b8def"/>
<rect x="1494.4" y="62" width="75.6" height="14" fill="#9ec9ff"/>
<rect x="126.5" y="92" width="5.2" height="18" fill="#8e44ad"><title>2026-09-22T22-21-22Z_video_5s.h264 no-START-at-sofar qfull=0 report=</title></rect>
<rect x="203.1" y="92" width="14.0" height="18" fill="#e0a800"><title>2026-09-22T22-35-32Z_video_5s.h264 spotter-reject missing 1 qfull=1 report=</title></rect>
<rect x="284.2" y="92" width="14.3" height="18" fill="#e0a800"><title>2026-09-22T22-50-32Z_video_5s.h264 spotter-reject missing 1 qfull=1 report=</title></rect>
<rect x="365.2" y="92" width="14.1" height="18" fill="#2a9d3f"><title>2026-09-22T23-05-32Z_video_5s.h264 OK missing 0 qfull=0 report=</title></rect>
<rect x="446.2" y="92" width="14.2" height="18" fill="#e0a800"><title>2026-09-22T23-20-32Z_video_5s.h264 spotter-reject missing 1 qfull=12 report=health</title></rect>
<rect x="527.2" y="92" width="14.2" height="18" fill="#2a9d3f"><title>2026-09-22T23-35-32Z_video_5s.h264 OK missing 0 qfull=0 report=</title></rect>
<rect x="608.3" y="92" width="14.1" height="18" fill="#e0a800"><title>2026-09-22T23-50-32Z_video_5s.h264 spotter-reject missing 1 qfull=1 report=</title></rect>
<rect x="689.3" y="92" width="14.2" height="18" fill="#e0a800"><title>2026-09-23T00-05-31Z_video_5s.h264 spotter-reject missing 2 qfull=2 report=</title></rect>
<rect x="770.2" y="92" width="14.1" height="18" fill="#e0a800"><title>2026-09-23T00-20-31Z_video_5s.h264 spotter-reject missing 1 qfull=1 report=</title></rect>
<rect x="851.5" y="92" width="14.1" height="18" fill="#e0a800"><title>2026-09-23T00-35-31Z_video_5s.h264 spotter-reject missing 1 qfull=1 report=</title></rect>
<rect x="932.3" y="92" width="14.2" height="18" fill="#2a9d3f"><title>2026-09-23T00-50-31Z_video_5s.h264 OK missing 0 qfull=1 report=</title></rect>
<rect x="1013.4" y="92" width="94.9" height="18" fill="#2a9d3f"><title>2026-09-23T01-05-31Z_video_5s.h264 OK missing 0 qfull=1 report=</title></rect>
<rect x="1175.3" y="92" width="14.0" height="18" fill="#2a9d3f"><title>2026-09-23T01-35-31Z_video_5s.h264 OK missing 0 qfull=0 report=</title></rect>
<rect x="1256.4" y="92" width="13.8" height="18" fill="#2a9d3f"><title>2026-09-23T01-50-31Z_video_5s.h264 OK missing 0 qfull=1 report=</title></rect>
<rect x="1337.2" y="92" width="14.2" height="18" fill="#2a9d3f"><title>2026-09-23T02-05-30Z_video_5s.h264 OK missing 0 qfull=0 report=</title></rect>
<rect x="1418.3" y="92" width="14.2" height="18" fill="#2a9d3f"><title>2026-09-23T02-20-30Z_video_5s.h264 OK missing 0 qfull=0 report=</title></rect>
<rect x="1499.4" y="92" width="2.9" height="18" fill="#8e44ad"><title>2026-09-23T02-35-30Z_video_5s.h264 no-START-at-sofar qfull=0 report=</title></rect>
<rect x="90" y="282" width="12" height="12" fill="#2a9d3f"/><text x="106" y="292" font-size="11">OK</text>
<rect x="240" y="282" width="12" height="12" fill="#e0a800"/><text x="256" y="292" font-size="11">spotter-reject</text>
<rect x="390" y="282" width="12" height="12" fill="#7a7a7a"/><text x="406" y="292" font-size="11">bus-cut</text>
<rect x="540" y="282" width="12" height="12" fill="#c0392b"/><text x="556" y="292" font-size="11">after-spotter</text>
<rect x="690" y="282" width="12" height="12" fill="#8e44ad"/><text x="706" y="292" font-size="11">no-START-at-sofar</text>
<rect x="840" y="282" width="12" height="12" fill="#bbbbbb"/><text x="856" y="292" font-size="11">no-burst</text>
<text x="990" y="292" font-size="11">reports: <tspan fill="#c0392b">hourly</tspan> <tspan fill="#ff6f00">health</tspan> <tspan fill="#8e44ad">network</tspan> <tspan>boot</tspan></text>
<text x="90" y="322" font-size="14" font-weight="bold">Folded onto the 5-minute grid (seconds after a :00/:05 boundary) — where each event lands relative to the boundary</text>
<line x1="90.0" y1="330" x2="90.0" y2="530" stroke="#eee"/>
<text x="90.0" y="544" font-size="10" text-anchor="middle">+0s</text>
<line x1="238.0" y1="330" x2="238.0" y2="530" stroke="#eee"/>
<text x="238.0" y="544" font-size="10" text-anchor="middle">+30s</text>
<line x1="386.0" y1="330" x2="386.0" y2="530" stroke="#eee"/>
<text x="386.0" y="544" font-size="10" text-anchor="middle">+60s</text>
<line x1="534.0" y1="330" x2="534.0" y2="530" stroke="#eee"/>
<text x="534.0" y="544" font-size="10" text-anchor="middle">+90s</text>
<line x1="682.0" y1="330" x2="682.0" y2="530" stroke="#eee"/>
<text x="682.0" y="544" font-size="10" text-anchor="middle">+120s</text>
<line x1="830.0" y1="330" x2="830.0" y2="530" stroke="#eee"/>
<text x="830.0" y="544" font-size="10" text-anchor="middle">+150s</text>
<line x1="978.0" y1="330" x2="978.0" y2="530" stroke="#eee"/>
<text x="978.0" y="544" font-size="10" text-anchor="middle">+180s</text>
<line x1="1126.0" y1="330" x2="1126.0" y2="530" stroke="#eee"/>
<text x="1126.0" y="544" font-size="10" text-anchor="middle">+210s</text>
<line x1="1274.0" y1="330" x2="1274.0" y2="530" stroke="#eee"/>
<text x="1274.0" y="544" font-size="10" text-anchor="middle">+240s</text>
<line x1="1422.0" y1="330" x2="1422.0" y2="530" stroke="#eee"/>
<text x="1422.0" y="544" font-size="10" text-anchor="middle">+270s</text>
<line x1="1570.0" y1="330" x2="1570.0" y2="530" stroke="#eee"/>
<text x="1570.0" y="544" font-size="10" text-anchor="middle">+300s</text>
<text x="4" y="354" font-size="11">bursts (start→end)</text>
<text x="4" y="404" font-size="11">queue full</text>
<text x="4" y="434" font-size="11">HDR push</text>
<text x="4" y="464" font-size="11">LEGACY report</text>
<text x="4" y="494" font-size="11">Rx check</text>
<rect x="612.9" y="344" width="286.1" height="4" fill="#8e44ad" opacity="0.7"/>
<rect x="366.3" y="342" width="764.7" height="4" fill="#e0a800" opacity="0.7"/>
<rect x="371.2" y="354" width="784.4" height="4" fill="#e0a800" opacity="0.7"/>
<rect x="371.2" y="342" width="774.5" height="4" fill="#2a9d3f" opacity="0.7"/>
<rect x="371.2" y="346" width="779.5" height="4" fill="#e0a800" opacity="0.7"/>
<rect x="371.2" y="348" width="779.5" height="4" fill="#2a9d3f" opacity="0.7"/>
<rect x="371.2" y="346" width="774.5" height="4" fill="#e0a800" opacity="0.7"/>
<rect x="371.2" y="350" width="779.5" height="4" fill="#e0a800" opacity="0.7"/>
<rect x="366.3" y="350" width="774.5" height="4" fill="#e0a800" opacity="0.7"/>
<rect x="381.1" y="344" width="774.5" height="4" fill="#e0a800" opacity="0.7"/>
<rect x="366.3" y="342" width="779.5" height="4" fill="#2a9d3f" opacity="0.7"/>
<rect x="371.2" y="350" width="1198.8" height="4" fill="#2a9d3f" opacity="0.7"/>
<rect x="90.0" y="350" width="4000.9" height="4" fill="#2a9d3f" opacity="0.7"/>
<rect x="366.3" y="342" width="769.6" height="4" fill="#2a9d3f" opacity="0.7"/>
<rect x="366.3" y="350" width="754.8" height="4" fill="#2a9d3f" opacity="0.7"/>
<rect x="356.4" y="354" width="779.5" height="4" fill="#2a9d3f" opacity="0.7"/>
<rect x="361.3" y="344" width="779.5" height="4" fill="#2a9d3f" opacity="0.7"/>
<rect x="366.3" y="350" width="157.9" height="4" fill="#8e44ad" opacity="0.7"/>
<rect x="361.3" y="407.6" width="24.7" height="4.4" fill="#e0a800"><title>queue_full +55s: 1</title></rect>
<rect x="386.0" y="390.0" width="24.7" height="22.0" fill="#e0a800"><title>queue_full +60s: 5</title></rect>
<rect x="410.7" y="390.0" width="24.7" height="22.0" fill="#e0a800"><title>queue_full +65s: 5</title></rect>
<rect x="534.0" y="403.2" width="24.7" height="8.8" fill="#e0a800"><title>queue_full +90s: 2</title></rect>
<rect x="583.3" y="407.6" width="24.7" height="4.4" fill="#e0a800"><title>queue_full +100s: 1</title></rect>
<rect x="805.3" y="407.6" width="24.7" height="4.4" fill="#e0a800"><title>queue_full +145s: 1</title></rect>
<rect x="830.0" y="407.6" width="24.7" height="4.4" fill="#e0a800"><title>queue_full +150s: 1</title></rect>
<rect x="854.7" y="407.6" width="24.7" height="4.4" fill="#e0a800"><title>queue_full +155s: 1</title></rect>
<rect x="904.0" y="407.6" width="24.7" height="4.4" fill="#e0a800"><title>queue_full +165s: 1</title></rect>
<rect x="953.3" y="407.6" width="24.7" height="4.4" fill="#e0a800"><title>queue_full +175s: 1</title></rect>
<rect x="1126.0" y="403.2" width="24.7" height="8.8" fill="#e0a800"><title>queue_full +210s: 2</title></rect>
<rect x="1150.7" y="407.6" width="24.7" height="4.4" fill="#e0a800"><title>queue_full +215s: 1</title></rect>
<text x="1570" y="404" font-size="10" text-anchor="end">max 5/5 s bin</text>
<rect x="90.0" y="420.0" width="24.7" height="22.0" fill="#5b8def"><title>hdr_push +0s: 50</title></rect>
<text x="1570" y="434" font-size="10" text-anchor="end">max 50/5 s bin</text>
<rect x="90.0" y="450.0" width="24.7" height="22.0" fill="#c0392b"><title>legacy_report +0s: 4</title></rect>
<rect x="287.3" y="466.5" width="24.7" height="5.5" fill="#c0392b"><title>legacy_report +40s: 1</title></rect>
<rect x="1422.0" y="466.5" width="24.7" height="5.5" fill="#c0392b"><title>legacy_report +270s: 1</title></rect>
<text x="1570" y="464" font-size="10" text-anchor="end">max 4/5 s bin</text>
<rect x="90.0" y="494.7" width="24.7" height="7.3" fill="#333"><title>rx_check +0s: 1</title></rect>
<rect x="114.7" y="494.7" width="24.7" height="7.3" fill="#333"><title>rx_check +5s: 1</title></rect>
<rect x="213.3" y="480.0" width="24.7" height="22.0" fill="#333"><title>rx_check +25s: 3</title></rect>
<rect x="238.0" y="494.7" width="24.7" height="7.3" fill="#333"><title>rx_check +30s: 1</title></rect>
<rect x="410.7" y="494.7" width="24.7" height="7.3" fill="#333"><title>rx_check +65s: 1</title></rect>
<text x="1570" y="494" font-size="10" text-anchor="end">max 3/5 s bin</text>
<text x="90" y="564" font-size="11">bursts coloured by loss_stage; report markers: hourly = the Spotter's hourly LEGACY report, health = the boot-anchored hourly health check alert, network = bridge topology change / cfg commit.</text>
<text x="90" y="579" font-size="11">video bursts 17, complete 8; chunks lost by stage {'spotter-reject': 8, 'OK': 0}; SD BM_TX.log can under-count submissions (Spotter logging queue drops lines under load).</text>
</svg>